<svg width="520" height="114" viewBox="0 0 520 114" fill="none" xmlns="http://www.w3.org/2000/svg">
<path d="M47.4 10.724H5.756L14.108 0.805999H39.918C44.9833 0.805999 47.516 3.532 47.516 8.984C47.516 9.52533 47.4773 10.1053 47.4 10.724ZM47.052 14.552C47.052 17.0267 45.544 18.844 42.528 20.004C43.6493 21.8987 44.2487 22.904 44.326 23.02C44.7513 23.9867 44.964 25.224 44.964 26.732C44.964 26.8867 44.964 27.2733 44.964 27.892C44.732 31.72 43.1853 34.8133 40.324 37.172C38.12 39.0667 35.7227 40.3427 33.132 41L1.464 40.942L9.178 14.552H47.052ZM28.782 28.24C28.782 27.08 28.376 26.4227 27.564 26.268H18.516L17.414 30.328H26.404C26.9453 30.328 27.4673 30.1153 27.97 29.69C28.5113 29.2647 28.782 28.7813 28.782 28.24ZM71.7083 0.979997L68.8083 10.666H54.7723L57.4403 1.096L71.7083 0.979997ZM82.6123 31.082L74.4923 40.942H46.3043L53.7863 14.494H67.8803L63.2403 31.024L82.6123 31.082ZM121.448 10.724H96.3923L104.744 0.979997H119.36L121.448 10.724ZM127.944 40.942H113.386L109.442 25.166H101.206L89.5483 40.942H72.5543L93.3183 14.436H122.26L127.944 40.942ZM171.71 10.724H131.516L137.722 0.979997H161.096C163.648 0.979997 166.026 1.98533 168.23 3.996C170.434 5.968 171.594 8.21067 171.71 10.724ZM172.406 14.494C172.406 21.2993 171.091 26.6353 168.462 30.502C166.335 33.634 164.402 35.8573 162.662 37.172C159.182 39.7627 154.793 41.058 149.496 41.058H126.47L134.068 14.494H148.336L143.522 30.676C144.45 31.0627 145.436 31.256 146.48 31.256C148.413 31.256 150.424 30.6567 152.512 29.458C155.876 27.5633 158.08 24.8373 159.124 21.28C159.665 19.4627 159.975 17.2007 160.052 14.494H172.406ZM215.532 0.979997L212.98 10.724H175.164L181.428 0.979997H215.532ZM211.762 14.494L208.978 25.05H190.128L188.62 30.502H207.296L204.512 40.942H170.466L177.542 14.494H211.762ZM301.749 10.608H256.799L262.947 0.979997H295.949C296.839 0.979997 297.728 1.28933 298.617 1.908C299.545 2.52666 300.241 3.26133 300.705 4.112C301.401 5.388 301.749 7.55333 301.749 10.608ZM301.053 14.494C300.744 16.8527 299.391 19.076 296.993 21.164C295.911 22.1307 295.002 22.73 294.267 22.962C295.157 24.354 295.601 25.8233 295.601 27.37C295.601 28.2593 295.466 29.516 295.195 31.14C295.041 32.1453 294.035 35.4127 292.179 40.942H279.187L283.827 24.992H270.139L265.209 40.942H251.695L259.467 14.494H301.053ZM346.02 1.154L343.294 10.724H330.07L332.738 1.154H346.02ZM321.892 1.154L319.224 10.724H306.174L308.9 1.212L321.892 1.154ZM342.366 14.494L335.058 40.942L313.83 41C307.18 41 303.062 39.0087 301.476 35.026C301.051 33.9433 300.838 32.8607 300.838 31.778C300.838 31.1593 300.916 30.5793 301.07 30.038L305.362 14.494H318.238L314.12 28.878C313.927 29.5353 313.83 30.0187 313.83 30.328C313.83 31.1013 314.217 31.604 314.99 31.836H324.27L329.142 14.494H342.366ZM389.879 0.979997L386.979 10.666H348.989L351.715 0.979997H364.881L373.465 9.158L375.553 0.979997H389.879ZM386.225 14.494L379.149 40.942H364.591L369.057 24.876L360.589 17.162L353.861 41H340.579L347.829 14.494H386.225ZM432.813 0.979997L429.913 10.666H391.923L394.649 0.979997H407.815L416.399 9.158L418.487 0.979997H432.813ZM429.159 14.494L422.083 40.942H407.525L411.991 24.876L403.523 17.162L396.795 41H383.513L390.763 14.494H429.159ZM473.02 0.979997L470.468 10.724H432.652L438.916 0.979997H473.02ZM469.25 14.494L466.466 25.05H447.616L446.108 30.502H464.784L462 40.942H427.954L435.03 14.494H469.25ZM519.986 10.608H475.036L481.184 0.979997H514.186C515.075 0.979997 515.964 1.28933 516.854 1.908C517.782 2.52666 518.478 3.26133 518.942 4.112C519.638 5.388 519.986 7.55333 519.986 10.608ZM519.29 14.494C518.98 16.8527 517.627 19.076 515.23 21.164C514.147 22.1307 513.238 22.73 512.504 22.962C513.393 24.354 513.838 25.8233 513.838 27.37C513.838 28.2593 513.702 29.516 513.432 31.14C513.277 32.1453 512.272 35.4127 510.416 40.942H497.424L502.064 24.992H488.376L483.446 40.942H469.932L477.704 14.494H519.29ZM41.658 82.608C41.658 80.2107 41.2713 78.3353 40.498 76.982C39.0287 74.314 37.192 72.98 34.988 72.98H20.778C18.226 72.98 15.7513 73.966 13.354 75.938C10.9953 77.8713 9.39067 80.0947 8.54 82.608H41.658ZM0.246 113.058L33.654 113L36.438 103.14H19.618C21.242 101.787 23.968 100.375 27.796 98.906C31.6627 97.398 34.3887 96.0447 35.974 94.846C38.7193 92.6807 40.4593 89.8967 41.194 86.494H26.52C26.5587 86.5713 26.578 86.668 26.578 86.784C26.578 87.8667 24.5673 89.3553 20.546 91.25C14.5913 94.034 10.396 96.4507 7.96 98.5C3.204 102.444 0.632667 107.297 0.246 113.058ZM62.4324 73.096L71.6544 72.98C76.7198 72.9413 79.2524 75.5707 79.2524 80.868C79.2524 81.4093 79.2331 81.9893 79.1944 82.608H46.0764C46.8498 80.2107 48.2418 78.0647 50.2524 76.17C52.4178 74.1207 54.6798 73.096 57.0384 73.096H62.4324ZM55.2404 98.906L55.7044 97.34L58.7784 86.494H45.2644L42.3064 97.398C41.7651 99.37 41.4944 101.265 41.4944 103.082C41.4944 104.629 41.7071 105.924 42.1324 106.968C43.0604 109.327 44.9164 110.989 47.7004 111.956C49.2471 112.497 51.4511 112.845 54.3124 113L55.8784 113.058C66.1638 112.633 72.5631 107.819 75.0764 98.616C75.2698 97.8427 75.6758 96.3153 76.2944 94.034L78.2084 86.552L64.9844 86.494L61.6784 98.79C61.2144 100.53 60.0931 101.439 58.3144 101.516C56.2651 101.593 55.2404 100.936 55.2404 99.544C55.2404 99.3507 55.2404 99.138 55.2404 98.906ZM86.3012 73.096L83.4592 82.724H96.5672L99.2352 73.154L86.3012 73.096ZM106.427 73.154L103.759 82.724H116.867L119.477 73.154H106.427ZM95.5232 113.058L99.3512 99.718L79.1092 99.834L82.5892 86.494H95.5232L94.6532 89.916H102.019L102.773 86.494H115.939L108.747 113.174L95.5232 113.058ZM149.082 72.98C154.147 72.98 156.68 75.6093 156.68 80.868C156.68 81.4093 156.641 81.9893 156.564 82.608H123.504C124.239 80.172 125.611 78.0067 127.622 76.112C129.787 74.024 132.049 72.98 134.408 72.98H149.082ZM139.106 98.964C138.642 100.627 137.521 101.535 135.742 101.69C133.654 101.845 132.61 101.187 132.61 99.718C132.61 99.4473 132.629 99.2347 132.668 99.08L132.842 98.384H119.444C119.057 100.395 118.864 102.057 118.864 103.372C118.864 107.78 120.662 110.699 124.258 112.13C125.65 112.671 127.564 112.961 130 113L135.626 113.058C138.41 112.865 140.44 112.536 141.716 112.072C143.92 111.26 146.027 109.733 148.038 107.49C151.17 103.933 153.857 96.934 156.1 86.494H123.04C122.885 87.77 122.808 88.466 122.808 88.582C122.808 93.802 125.901 96.3733 132.088 96.296L139.86 96.18L139.106 98.964Z" fill="white"/>
</svg>
