<svg width="51" height="51" viewBox="0 0 51 51" fill="none" xmlns="http://www.w3.org/2000/svg">
<path d="M25.5 2.41052C19.5832 2.41052 13.6664 4.66169 9.16404 9.16404C0.159351 18.1687 0.159351 32.8312 9.16404 41.8359C13.6664 46.3383 19.6031 48.6093 25.5 48.6093C31.3969 48.6093 37.3336 46.3383 41.8359 41.8359C50.8406 32.8312 50.8406 18.1687 41.8359 9.16404C37.3336 4.66169 31.4168 2.41052 25.5 2.41052ZM25.5 4.78123C30.7992 4.78123 36.0984 6.81326 40.1625 10.8375C48.2109 18.9258 48.2109 32.0742 40.1625 40.1625C32.0742 48.2508 18.9258 48.2508 10.8773 40.1625C2.78904 32.0742 2.78904 18.9258 10.8375 10.8375C14.9015 6.81326 20.2008 4.78123 25.5 4.78123ZM25.5 16.7344C24.8226 16.7344 24.3047 17.2523 24.3047 17.9297V24.3047H17.9297C17.2523 24.3047 16.7344 24.8226 16.7344 25.5C16.7344 26.1773 17.2523 26.6953 17.9297 26.6953H24.3047V33.0703C24.3047 33.7476 24.8226 34.2656 25.5 34.2656C26.1773 34.2656 26.6953 33.7476 26.6953 33.0703V26.6953H33.0703C33.7476 26.6953 34.2656 26.1773 34.2656 25.5C34.2656 24.8226 33.7476 24.3047 33.0703 24.3047H26.6953V17.9297C26.6953 17.2523 26.1773 16.7344 25.5 16.7344Z" fill="white"/>
</svg>
