<svg width="181" height="100" viewBox="0 0 181 100" fill="none" xmlns="http://www.w3.org/2000/svg">
<path d="M5.09913 46.256C5.09913 44.2587 5.50046 42.4947 6.30313 40.964C7.10579 39.4333 8.22579 38.2387 9.66313 37.38C11.1005 36.5027 12.7525 36.064 14.6191 36.064C16.3551 36.064 17.8298 36.3813 19.0431 37.016C20.2565 37.632 21.2178 38.4813 21.9271 39.564C22.6551 40.628 23.1405 41.832 23.3831 43.176H18.6791C18.4925 42.2613 18.0538 41.524 17.3631 40.964C16.6725 40.3853 15.7578 40.096 14.6191 40.096C13.1445 40.096 11.9591 40.656 11.0631 41.776C10.1671 42.8773 9.71913 44.3707 9.71913 46.256C9.71913 48.1227 10.1671 49.616 11.0631 50.736C11.9591 51.856 13.1445 52.416 14.6191 52.416C15.7578 52.416 16.6818 52.1453 17.3911 51.604C18.1005 51.0627 18.5485 50.3533 18.7351 49.476H23.3831C23.1591 50.8013 22.6831 51.996 21.9551 53.06C21.2271 54.1053 20.2565 54.936 19.0431 55.552C17.8298 56.1493 16.3551 56.448 14.6191 56.448C12.7525 56.448 11.1005 56.0187 9.66313 55.16C8.22579 54.2827 7.10579 53.0787 6.30313 51.548C5.50046 49.9987 5.09913 48.2347 5.09913 46.256ZM39.7535 56.448C37.8868 56.448 36.3095 56.084 35.0215 55.356C33.7335 54.628 32.7535 53.6013 32.0815 52.276C31.4282 50.932 31.1015 49.3547 31.1015 47.544V36.512H35.6375V46.984C35.6375 48.6453 35.9548 49.9707 36.5895 50.96C37.2242 51.9307 38.2788 52.416 39.7535 52.416C41.2655 52.416 42.3295 51.9307 42.9455 50.96C43.5802 49.9707 43.8975 48.6453 43.8975 46.984V36.512H48.4615V47.544C48.4615 49.3547 48.1255 50.932 47.4535 52.276C46.8002 53.6013 45.8295 54.628 44.5415 55.356C43.2535 56.084 41.6575 56.448 39.7535 56.448ZM71.3401 52.052V56H57.2841V36.512H61.8481V52.052H71.3401ZM85.8494 56H81.2854V40.46H75.0974V36.512H92.0374V40.46H85.8494V56ZM100.095 56V36.512H114.207V40.432H104.659V44.604H113.871V48.496H104.659V56H100.095ZM136.636 52.052V56H122.58V36.512H127.144V52.052H136.636ZM149.246 56H144.682V36.512H149.246V56ZM156.712 56L163.796 45.836L157.44 36.512H162.872L166.708 42.392L170.404 36.512H175.78L169.368 45.892L176.508 56H171.048L166.428 49.28L162.06 56H156.712Z" fill="white"/>
<path d="M30.8193 73.8352H29.6783V69.9502H28.1313V68.9632H32.3663V69.9502H30.8193V73.8352ZM34.3806 73.8352V68.9632H35.5216V70.7902H37.6146V68.9632H38.7556V73.8352H37.6146V71.7772H35.5216V73.8352H34.3806ZM41.0204 73.8352V68.9632H44.6184V69.9432H42.1544V70.8812H44.5274V71.8612H42.1544V72.8552H44.6534V73.8352H41.0204ZM49.5834 73.8352V68.9632H51.7674C52.1034 68.9632 52.3974 69.0145 52.6494 69.1172C52.9014 69.2199 53.0974 69.3692 53.2374 69.5652C53.3821 69.7612 53.4544 70.0015 53.4544 70.2862C53.4544 70.5195 53.3961 70.7225 53.2794 70.8952C53.1627 71.0632 52.9901 71.1939 52.7614 71.2872C53.0507 71.3805 53.2677 71.5275 53.4124 71.7282C53.5571 71.9289 53.6294 72.1622 53.6294 72.4282C53.6294 72.7175 53.5524 72.9672 53.3984 73.1772C53.2491 73.3872 53.0414 73.5505 52.7754 73.6672C52.5094 73.7792 52.1991 73.8352 51.8444 73.8352H49.5834ZM51.6414 69.8942H50.7034V70.8812H51.6414C51.8701 70.8812 52.0451 70.8415 52.1664 70.7622C52.2877 70.6782 52.3484 70.5522 52.3484 70.3842C52.3484 70.0575 52.1127 69.8942 51.6414 69.8942ZM51.7604 71.7982H50.7034V72.9042H51.7604C52.2551 72.9042 52.5024 72.7199 52.5024 72.3512C52.5024 71.9825 52.2551 71.7982 51.7604 71.7982ZM55.6627 73.8352V68.9632H59.2607V69.9432H56.7967V70.8812H59.1697V71.8612H56.7967V72.8552H59.2957V73.8352H55.6627ZM63.1988 73.9472C62.6015 73.9472 62.1231 73.8119 61.7638 73.5412C61.4091 73.2659 61.1781 72.8879 61.0708 72.4072H62.1978C62.2491 72.5752 62.3611 72.7129 62.5338 72.8202C62.7111 72.9275 62.9281 72.9812 63.1848 72.9812C63.4275 72.9812 63.6235 72.9369 63.7728 72.8482C63.9221 72.7595 63.9968 72.6359 63.9968 72.4772C63.9968 72.3792 63.9735 72.2952 63.9268 72.2252C63.8848 72.1552 63.7985 72.0945 63.6678 72.0432C63.5418 71.9872 63.3505 71.9382 63.0938 71.8962L62.5758 71.8052C62.1278 71.7259 61.7895 71.5765 61.5608 71.3572C61.3368 71.1379 61.2248 70.8229 61.2248 70.4122C61.2248 70.0902 61.3088 69.8125 61.4768 69.5792C61.6448 69.3459 61.8735 69.1662 62.1628 69.0402C62.4521 68.9142 62.7741 68.8512 63.1288 68.8512C63.6655 68.8512 64.1088 68.9772 64.4588 69.2292C64.8088 69.4812 65.0211 69.8429 65.0958 70.3142H63.9688C63.9268 70.1555 63.8358 70.0342 63.6958 69.9502C63.5605 69.8615 63.3761 69.8172 63.1428 69.8172C62.9001 69.8172 62.7088 69.8615 62.5688 69.9502C62.4335 70.0389 62.3658 70.1579 62.3658 70.3072C62.3658 70.4425 62.4218 70.5499 62.5338 70.6292C62.6458 70.7085 62.8698 70.7785 63.2058 70.8392L63.7168 70.9232C64.6688 71.0865 65.1448 71.5649 65.1448 72.3582C65.1448 72.6989 65.0608 72.9882 64.8928 73.2262C64.7295 73.4642 64.5008 73.6439 64.2068 73.7652C63.9175 73.8865 63.5815 73.9472 63.1988 73.9472ZM69.4303 73.8352H68.2893V69.9502H66.7423V68.9632H70.9773V69.9502H69.4303V73.8352ZM78.0505 73.9472C77.6865 73.9472 77.3505 73.8842 77.0425 73.7582C76.7392 73.6322 76.4755 73.4549 76.2515 73.2262C76.0322 72.9975 75.8595 72.7292 75.7335 72.4212C75.6122 72.1085 75.5515 71.7679 75.5515 71.3992C75.5515 71.0305 75.6122 70.6922 75.7335 70.3842C75.8595 70.0715 76.0322 69.8009 76.2515 69.5722C76.4755 69.3435 76.7392 69.1662 77.0425 69.0402C77.3505 68.9142 77.6865 68.8512 78.0505 68.8512C78.4192 68.8512 78.7552 68.9142 79.0585 69.0402C79.3665 69.1662 79.6325 69.3435 79.8565 69.5722C80.0805 69.8009 80.2532 70.0715 80.3745 70.3842C80.5005 70.6922 80.5635 71.0305 80.5635 71.3992C80.5635 71.7679 80.5005 72.1085 80.3745 72.4212C80.2532 72.7292 80.0805 72.9975 79.8565 73.2262C79.6325 73.4549 79.3665 73.6322 79.0585 73.7582C78.7552 73.8842 78.4192 73.9472 78.0505 73.9472ZM78.0505 72.9392C78.3165 72.9392 78.5522 72.8762 78.7575 72.7502C78.9628 72.6195 79.1215 72.4375 79.2335 72.2042C79.3502 71.9709 79.4085 71.7025 79.4085 71.3992C79.4085 71.0912 79.3502 70.8229 79.2335 70.5942C79.1215 70.3609 78.9628 70.1812 78.7575 70.0552C78.5522 69.9245 78.3165 69.8592 78.0505 69.8592C77.7892 69.8592 77.5558 69.9245 77.3505 70.0552C77.1498 70.1812 76.9912 70.3609 76.8745 70.5942C76.7625 70.8229 76.7065 71.0912 76.7065 71.3992C76.7065 71.7025 76.7625 71.9709 76.8745 72.2042C76.9912 72.4375 77.1498 72.6195 77.3505 72.7502C77.5558 72.8762 77.7892 72.9392 78.0505 72.9392ZM82.5868 73.8352V68.9632H86.1148V69.9432H83.7278V70.9862H86.0308V71.9592H83.7278V73.8352H82.5868ZM92.791 73.9472C92.1937 73.9472 91.7154 73.8119 91.356 73.5412C91.0014 73.2659 90.7704 72.8879 90.663 72.4072H91.79C91.8414 72.5752 91.9534 72.7129 92.126 72.8202C92.3034 72.9275 92.5204 72.9812 92.777 72.9812C93.0197 72.9812 93.2157 72.9369 93.365 72.8482C93.5144 72.7595 93.589 72.6359 93.589 72.4772C93.589 72.3792 93.5657 72.2952 93.519 72.2252C93.477 72.1552 93.3907 72.0945 93.26 72.0432C93.134 71.9872 92.9427 71.9382 92.686 71.8962L92.168 71.8052C91.72 71.7259 91.3817 71.5765 91.153 71.3572C90.929 71.1379 90.817 70.8229 90.817 70.4122C90.817 70.0902 90.901 69.8125 91.069 69.5792C91.237 69.3459 91.4657 69.1662 91.755 69.0402C92.0444 68.9142 92.3664 68.8512 92.721 68.8512C93.2577 68.8512 93.701 68.9772 94.051 69.2292C94.401 69.4812 94.6134 69.8429 94.688 70.3142H93.561C93.519 70.1555 93.428 70.0342 93.288 69.9502C93.1527 69.8615 92.9684 69.8172 92.735 69.8172C92.4924 69.8172 92.301 69.8615 92.161 69.9502C92.0257 70.0389 91.958 70.1579 91.958 70.3072C91.958 70.4425 92.014 70.5499 92.126 70.6292C92.238 70.7085 92.462 70.7785 92.798 70.8392L93.309 70.9232C94.261 71.0865 94.737 71.5649 94.737 72.3582C94.737 72.6989 94.653 72.9882 94.485 73.2262C94.3217 73.4642 94.093 73.6439 93.799 73.7652C93.5097 73.8865 93.1737 73.9472 92.791 73.9472ZM96.7574 73.8352V68.9632H100.355V69.9432H97.8914V70.8812H100.264V71.8612H97.8914V72.8552H100.39V73.8352H96.7574ZM106.939 68.9632L105.112 73.8352H103.915L102.095 68.9632H103.327L104.545 72.4912L105.756 68.9632H106.939ZM108.786 73.8352V68.9632H112.384V69.9432H109.92V70.8812H112.293V71.8612H109.92V72.8552H112.419V73.8352H108.786ZM114.544 73.8352V68.9632H115.643L117.82 72.0992V68.9632H118.912V73.8352H117.82L115.636 70.6922V73.8352H114.544ZM123.613 73.8352H122.472V69.9502H120.925V68.9632H125.16V69.9502H123.613V73.8352ZM127.175 73.8352V68.9632H128.316V70.7902H130.409V68.9632H131.55V73.8352H130.409V71.7772H128.316V73.8352H127.175ZM139.867 73.8352L139.531 72.8622H137.683L137.347 73.8352H136.199L138.04 68.9632H139.23L141.071 73.8352H139.867ZM138.019 71.8892H139.188L138.607 70.2022L138.019 71.8892ZM142.917 73.8352V68.9632H144.996C145.388 68.9632 145.727 69.0309 146.011 69.1662C146.296 69.3015 146.515 69.4905 146.669 69.7332C146.823 69.9759 146.9 70.2629 146.9 70.5942C146.9 70.9349 146.816 71.2289 146.648 71.4762C146.485 71.7235 146.261 71.9125 145.976 72.0432L147.166 73.8352H145.871L144.849 72.2392H144.058V73.8352H142.917ZM144.058 71.2732H144.835C145.153 71.2732 145.384 71.2149 145.528 71.0982C145.673 70.9815 145.745 70.8089 145.745 70.5802C145.745 70.3562 145.673 70.1929 145.528 70.0902C145.384 69.9829 145.153 69.9292 144.835 69.9292H144.058V71.2732ZM151.323 73.8352H150.182V69.9502H148.635V68.9632H152.87V69.9502H151.323V73.8352Z" fill="#FEC63E"/>
</svg>
