<svg width="200" height="76" viewBox="0 0 200 76" fill="none" xmlns="http://www.w3.org/2000/svg">
<path d="M14.5991 33.256C14.5991 31.2587 15.0005 29.4947 15.8031 27.964C16.6058 26.4333 17.7258 25.2387 19.1631 24.38C20.6005 23.5027 22.2525 23.064 24.1191 23.064C25.8551 23.064 27.3298 23.3813 28.5431 24.016C29.7565 24.632 30.7178 25.4813 31.4271 26.564C32.1551 27.628 32.6405 28.832 32.8831 30.176H28.1791C27.9925 29.2613 27.5538 28.524 26.8631 27.964C26.1725 27.3853 25.2578 27.096 24.1191 27.096C22.6445 27.096 21.4591 27.656 20.5631 28.776C19.6671 29.8773 19.2191 31.3707 19.2191 33.256C19.2191 35.1227 19.6671 36.616 20.5631 37.736C21.4591 38.856 22.6445 39.416 24.1191 39.416C25.2578 39.416 26.1818 39.1453 26.8911 38.604C27.6005 38.0627 28.0485 37.3533 28.2351 36.476H32.8831C32.6591 37.8013 32.1831 38.996 31.4551 40.06C30.7271 41.1053 29.7565 41.936 28.5431 42.552C27.3298 43.1493 25.8551 43.448 24.1191 43.448C22.2525 43.448 20.6005 43.0187 19.1631 42.16C17.7258 41.2827 16.6058 40.0787 15.8031 38.548C15.0005 36.9987 14.5991 35.2347 14.5991 33.256ZM49.2535 43.448C47.3868 43.448 45.8095 43.084 44.5215 42.356C43.2335 41.628 42.2535 40.6013 41.5815 39.276C40.9282 37.932 40.6015 36.3547 40.6015 34.544V23.512H45.1375V33.984C45.1375 35.6453 45.4548 36.9707 46.0895 37.96C46.7242 38.9307 47.7788 39.416 49.2535 39.416C50.7655 39.416 51.8295 38.9307 52.4455 37.96C53.0802 36.9707 53.3975 35.6453 53.3975 33.984V23.512H57.9615V34.544C57.9615 36.3547 57.6255 37.932 56.9535 39.276C56.3002 40.6013 55.3295 41.628 54.0415 42.356C52.7535 43.084 51.1575 43.448 49.2535 43.448ZM80.8401 39.052V43H66.7841V23.512H71.3481V39.052H80.8401ZM95.3494 43H90.7854V27.46H84.5974V23.512H101.537V27.46H95.3494V43ZM109.595 43V23.512H123.707V27.432H114.159V31.604H123.371V35.496H114.159V43H109.595ZM146.136 39.052V43H132.08V23.512H136.644V39.052H146.136ZM158.746 43H154.182V23.512H158.746V43ZM166.212 43L173.296 32.836L166.94 23.512H172.372L176.208 29.392L179.904 23.512H185.28L178.868 32.892L186.008 43H180.548L175.928 36.28L171.56 43H166.212Z" fill="white"/>
<path d="M48.8451 58H47.8671V54.67H46.5411V53.824H50.1711V54.67H48.8451V58ZM51.8976 58V53.824H52.8756V55.39H54.6696V53.824H55.6476V58H54.6696V56.236H52.8756V58H51.8976ZM57.589 58V53.824H60.673V54.664H58.561V55.468H60.595V56.308H58.561V57.16H60.703V58H57.589ZM64.9286 58V53.824H66.8006C67.0886 53.824 67.3406 53.868 67.5566 53.956C67.7726 54.044 67.9406 54.172 68.0606 54.34C68.1846 54.508 68.2466 54.714 68.2466 54.958C68.2466 55.158 68.1966 55.332 68.0966 55.48C67.9966 55.624 67.8486 55.736 67.6526 55.816C67.9006 55.896 68.0866 56.022 68.2106 56.194C68.3346 56.366 68.3966 56.566 68.3966 56.794C68.3966 57.042 68.3306 57.256 68.1986 57.436C68.0706 57.616 67.8926 57.756 67.6646 57.856C67.4366 57.952 67.1706 58 66.8666 58H64.9286ZM66.6926 54.622H65.8886V55.468H66.6926C66.8886 55.468 67.0386 55.434 67.1426 55.366C67.2466 55.294 67.2986 55.186 67.2986 55.042C67.2986 54.762 67.0966 54.622 66.6926 54.622ZM66.7946 56.254H65.8886V57.202H66.7946C67.2186 57.202 67.4306 57.044 67.4306 56.728C67.4306 56.412 67.2186 56.254 66.7946 56.254ZM70.1395 58V53.824H73.2235V54.664H71.1115V55.468H73.1455V56.308H71.1115V57.16H73.2535V58H70.1395ZM76.599 58.096C76.087 58.096 75.677 57.98 75.369 57.748C75.065 57.512 74.867 57.188 74.775 56.776H75.741C75.785 56.92 75.881 57.038 76.029 57.13C76.181 57.222 76.367 57.268 76.587 57.268C76.795 57.268 76.963 57.23 77.091 57.154C77.219 57.078 77.283 56.972 77.283 56.836C77.283 56.752 77.263 56.68 77.223 56.62C77.187 56.56 77.113 56.508 77.001 56.464C76.893 56.416 76.729 56.374 76.509 56.338L76.065 56.26C75.681 56.192 75.391 56.064 75.195 55.876C75.003 55.688 74.907 55.418 74.907 55.066C74.907 54.79 74.979 54.552 75.123 54.352C75.267 54.152 75.463 53.998 75.711 53.89C75.959 53.782 76.235 53.728 76.539 53.728C76.999 53.728 77.379 53.836 77.679 54.052C77.979 54.268 78.161 54.578 78.225 54.982H77.259C77.223 54.846 77.145 54.742 77.025 54.67C76.909 54.594 76.751 54.556 76.551 54.556C76.343 54.556 76.179 54.594 76.059 54.67C75.943 54.746 75.885 54.848 75.885 54.976C75.885 55.092 75.933 55.184 76.029 55.252C76.125 55.32 76.317 55.38 76.605 55.432L77.043 55.504C77.859 55.644 78.267 56.054 78.267 56.734C78.267 57.026 78.195 57.274 78.051 57.478C77.911 57.682 77.715 57.836 77.463 57.94C77.215 58.044 76.927 58.096 76.599 58.096ZM81.9402 58H80.9622V54.67H79.6362V53.824H83.2662V54.67H81.9402V58ZM89.329 58.096C89.017 58.096 88.729 58.042 88.465 57.934C88.205 57.826 87.979 57.674 87.787 57.478C87.599 57.282 87.451 57.052 87.343 56.788C87.239 56.52 87.187 56.228 87.187 55.912C87.187 55.596 87.239 55.306 87.343 55.042C87.451 54.774 87.599 54.542 87.787 54.346C87.979 54.15 88.205 53.998 88.465 53.89C88.729 53.782 89.017 53.728 89.329 53.728C89.645 53.728 89.933 53.782 90.193 53.89C90.457 53.998 90.685 54.15 90.877 54.346C91.069 54.542 91.217 54.774 91.321 55.042C91.429 55.306 91.483 55.596 91.483 55.912C91.483 56.228 91.429 56.52 91.321 56.788C91.217 57.052 91.069 57.282 90.877 57.478C90.685 57.674 90.457 57.826 90.193 57.934C89.933 58.042 89.645 58.096 89.329 58.096ZM89.329 57.232C89.557 57.232 89.759 57.178 89.935 57.07C90.111 56.958 90.247 56.802 90.343 56.602C90.443 56.402 90.493 56.172 90.493 55.912C90.493 55.648 90.443 55.418 90.343 55.222C90.247 55.022 90.111 54.868 89.935 54.76C89.759 54.648 89.557 54.592 89.329 54.592C89.105 54.592 88.905 54.648 88.729 54.76C88.557 54.868 88.421 55.022 88.321 55.222C88.225 55.418 88.177 55.648 88.177 55.912C88.177 56.172 88.225 56.402 88.321 56.602C88.421 56.802 88.557 56.958 88.729 57.07C88.905 57.178 89.105 57.232 89.329 57.232ZM93.2172 58V53.824H96.2412V54.664H94.1952V55.558H96.1692V56.392H94.1952V58H93.2172ZM101.964 58.096C101.452 58.096 101.042 57.98 100.734 57.748C100.43 57.512 100.232 57.188 100.14 56.776H101.106C101.15 56.92 101.246 57.038 101.394 57.13C101.546 57.222 101.732 57.268 101.952 57.268C102.16 57.268 102.328 57.23 102.456 57.154C102.584 57.078 102.648 56.972 102.648 56.836C102.648 56.752 102.628 56.68 102.588 56.62C102.552 56.56 102.478 56.508 102.366 56.464C102.258 56.416 102.094 56.374 101.874 56.338L101.43 56.26C101.046 56.192 100.756 56.064 100.56 55.876C100.368 55.688 100.272 55.418 100.272 55.066C100.272 54.79 100.344 54.552 100.488 54.352C100.632 54.152 100.828 53.998 101.076 53.89C101.324 53.782 101.6 53.728 101.904 53.728C102.364 53.728 102.744 53.836 103.044 54.052C103.344 54.268 103.526 54.578 103.59 54.982H102.624C102.588 54.846 102.51 54.742 102.39 54.67C102.274 54.594 102.116 54.556 101.916 54.556C101.708 54.556 101.544 54.594 101.424 54.67C101.308 54.746 101.25 54.848 101.25 54.976C101.25 55.092 101.298 55.184 101.394 55.252C101.49 55.32 101.682 55.38 101.97 55.432L102.408 55.504C103.224 55.644 103.632 56.054 103.632 56.734C103.632 57.026 103.56 57.274 103.416 57.478C103.276 57.682 103.08 57.836 102.828 57.94C102.58 58.044 102.292 58.096 101.964 58.096ZM105.363 58V53.824H108.447V54.664H106.335V55.468H108.369V56.308H106.335V57.16H108.477V58H105.363ZM114.091 53.824L112.525 58H111.499L109.939 53.824H110.995L112.039 56.848L113.077 53.824H114.091ZM115.674 58V53.824H118.758V54.664H116.646V55.468H118.68V56.308H116.646V57.16H118.788V58H115.674ZM120.609 58V53.824H121.551L123.417 56.512V53.824H124.353V58H123.417L121.545 55.306V58H120.609ZM128.383 58H127.405V54.67H126.079V53.824H129.709V54.67H128.383V58ZM131.435 58V53.824H132.413V55.39H134.207V53.824H135.185V58H134.207V56.236H132.413V58H131.435ZM142.315 58L142.027 57.166H140.443L140.155 58H139.171L140.749 53.824H141.769L143.347 58H142.315ZM140.731 56.332H141.733L141.235 54.886L140.731 56.332ZM144.929 58V53.824H146.711C147.047 53.824 147.337 53.882 147.581 53.998C147.825 54.114 148.013 54.276 148.145 54.484C148.277 54.692 148.343 54.938 148.343 55.222C148.343 55.514 148.271 55.766 148.127 55.978C147.987 56.19 147.795 56.352 147.551 56.464L148.571 58H147.461L146.585 56.632H145.907V58H144.929ZM145.907 55.804H146.573C146.845 55.804 147.043 55.754 147.167 55.654C147.291 55.554 147.353 55.406 147.353 55.21C147.353 55.018 147.291 54.878 147.167 54.79C147.043 54.698 146.845 54.652 146.573 54.652H145.907V55.804ZM152.134 58H151.156V54.67H149.83V53.824H153.46V54.67H152.134V58Z" fill="white"/>
</svg>
